<?xml version="1.0" encoding="utf-8"?>
<!-- Generator: Adobe Illustrator 24.3.0, SVG Export Plug-In . SVG Version: 6.00 Build 0)  -->
<svg version="1.1" id="Camada_1" xmlns="http://www.w3.org/2000/svg" xmlns:xlink="http://www.w3.org/1999/xlink" x="0px" y="0px"
	 viewBox="0 0 1000 319" style="enable-background:new 0 0 1000 319;" xml:space="preserve">
<style type="text/css">
	.st0{fill:#82337E;}
	.st1{fill:#023047;}
	.st2{fill:#535353;}
	.st3{fill:#252525;}
	.st4{fill:#FB8500;}
	.st5{fill:#1CADD9;}
	.st6{fill:#FFFFFF;}
	.st7{fill:none;stroke:#000000;stroke-width:3;stroke-miterlimit:10;}
	.st8{clip-path:url(#SVGID_2_);fill:url(#SVGID_3_);}
	.st9{clip-path:url(#SVGID_5_);fill:url(#SVGID_6_);}
	.st10{clip-path:url(#SVGID_8_);fill:url(#SVGID_9_);}
	.st11{clip-path:url(#SVGID_11_);fill:url(#SVGID_12_);}
	.st12{clip-path:url(#SVGID_14_);fill:url(#SVGID_15_);}
	.st13{clip-path:url(#SVGID_17_);fill:url(#SVGID_18_);}
	.st14{clip-path:url(#SVGID_20_);fill:url(#SVGID_21_);}
	.st15{clip-path:url(#SVGID_23_);fill:url(#SVGID_24_);}
	.st16{clip-path:url(#SVGID_26_);fill:url(#SVGID_27_);}
	.st17{clip-path:url(#SVGID_29_);fill:url(#SVGID_30_);}
	.st18{clip-path:url(#SVGID_32_);fill:url(#SVGID_33_);}
	.st19{clip-path:url(#SVGID_35_);fill:url(#SVGID_36_);}
</style>
<g>
	<g>
		<path class="st6" d="M169.47,191.66l-42.4,52.93c-3.15,3.93-0.35,9.75,4.68,9.75h84.8c5.03,0,7.83-5.82,4.68-9.75l-42.4-52.93
			C176.44,188.66,171.87,188.66,169.47,191.66z"/>
		<path class="st6" d="M107.08,85.29L65.27,157.7c-0.56,0.96-0.56,2.15,0,3.11l41.81,72.41c1.2,2.07,4.19,2.07,5.39,0l41.81-72.41
			c0.56-0.96,0.56-2.15,0-3.11l-41.81-72.41C111.27,83.22,108.27,83.22,107.08,85.29z"/>
		<path class="st6" d="M235.85,85.29l-41.81,72.41c-0.56,0.96-0.56,2.15,0,3.11l41.81,72.41c1.2,2.07,4.19,2.07,5.39,0l41.81-72.41
			c0.56-0.96,0.56-2.15,0-3.11l-41.81-72.41C240.04,83.22,237.04,83.22,235.85,85.29z"/>
		<path class="st6" d="M178.84,126.86l42.4-52.93c3.15-3.93,0.35-9.75-4.68-9.75h-84.8c-5.03,0-7.83,5.82-4.68,9.75l42.4,52.93
			C171.87,129.86,176.44,129.86,178.84,126.86z"/>
	</g>
	<g>
		<g>
			<path class="st6" d="M348.78,73.41c0-4.32,3.5-7.82,7.82-7.82h72.25c17.97,0,31.67,4.67,41.12,14.02
				c9.43,9.34,14.15,22.91,14.15,40.71c0,17.98-4.72,31.64-14.15,40.98c-9.43,9.34-23.14,14.02-41.12,14.02h-52.84
				c-4.32,0-7.82,3.5-7.82,7.82v63.36c0,4.32-3.5,7.82-7.82,7.82h-3.77c-4.32,0-7.82-3.5-7.82-7.82V73.41z M427.23,159.67
				c11.86,0,21.07-3.45,27.64-10.38c6.56-6.92,9.84-16.58,9.84-28.98c0-12.22-3.28-21.79-9.84-28.71
				c-6.56-6.92-15.77-10.38-27.64-10.38h-51.22c-4.32,0-7.82,3.5-7.82,7.82v62.81c0,4.32,3.5,7.82,7.82,7.82h51.22V159.67z"/>
			<path class="st6" d="M360.37,254.82h-3.77c-4.59,0-8.32-3.73-8.32-8.32V73.41c0-4.59,3.73-8.32,8.32-8.32h72.25
				c18.02,0,31.98,4.77,41.47,14.17c9.49,9.4,14.3,23.21,14.3,41.06c0,18.03-4.81,31.94-14.3,41.34
				c-9.49,9.4-23.44,14.17-41.47,14.17h-52.84c-4.04,0-7.32,3.28-7.32,7.32v63.36C368.69,251.08,364.96,254.82,360.37,254.82z
				 M356.6,66.09c-4.04,0-7.32,3.28-7.32,7.32V246.5c0,4.04,3.28,7.32,7.32,7.32h3.77c4.04,0,7.32-3.28,7.32-7.32v-63.36
				c0-4.59,3.73-8.32,8.32-8.32h52.84c17.75,0,31.47-4.67,40.76-13.88c9.29-9.2,14-22.87,14-40.62c0-17.58-4.71-31.15-14-40.35
				c-9.3-9.21-23.01-13.88-40.76-13.88H356.6z M427.73,160.18h-51.72c-4.59,0-8.32-3.73-8.32-8.32V89.05c0-4.59,3.73-8.32,8.32-8.32
				h51.22c11.96,0,21.38,3.54,28,10.53c6.62,6.99,9.98,16.76,9.98,29.05c0,12.47-3.36,22.33-9.98,29.32
				c-6.54,6.89-15.79,10.43-27.5,10.53V160.18z M376.01,81.74c-4.04,0-7.32,3.28-7.32,7.32v62.81c0,4.04,3.28,7.32,7.32,7.32
				l51.22-0.01c11.66,0,20.84-3.44,27.28-10.22c6.44-6.8,9.7-16.43,9.7-28.63c0-12.02-3.27-21.57-9.7-28.36
				c-6.42-6.78-15.6-10.22-27.28-10.22H376.01z"/>
		</g>
		<g>
			<path class="st6" d="M500.63,65.6h3.77c4.32,0,7.82,3.5,7.82,7.82V246.5c0,4.32-3.5,7.82-7.82,7.82h-3.77
				c-4.32,0-7.82-3.5-7.82-7.82V73.42C492.81,69.1,496.31,65.6,500.63,65.6z"/>
			<path class="st6" d="M504.4,254.82h-3.77c-4.59,0-8.32-3.73-8.32-8.32V73.42c0-4.59,3.73-8.32,8.32-8.32h3.77
				c4.59,0,8.32,3.73,8.32,8.32V246.5C512.72,251.09,508.99,254.82,504.4,254.82z M500.63,66.1c-4.04,0-7.32,3.28-7.32,7.32V246.5
				c0,4.04,3.28,7.32,7.32,7.32h3.77c4.04,0,7.32-3.28,7.32-7.32V73.42c0-4.04-3.28-7.32-7.32-7.32H500.63z"/>
		</g>
		<g>
			<path class="st6" d="M613.5,164.86l52.17,77.27c3.51,5.19-0.22,12.19-6.48,12.19h-3.51c-2.6,0-5.02-1.3-6.48-3.44l-44.84-66.48
				c-3.1-4.59-9.86-4.59-12.97,0l-44.84,66.48c-1.45,2.16-3.89,3.44-6.48,3.44h-3.25c-6.26,0-9.98-7-6.48-12.19l53.55-79.43
				c1.77-2.64,1.78-6.09,0.01-8.73l-51.16-76.2c-3.49-5.19,0.24-12.17,6.49-12.17h3.28c2.6,0,5.03,1.3,6.49,3.45l44.04,65.38
				c3.1,4.6,9.88,4.6,12.97,0l44.04-65.38c1.45-2.16,3.89-3.45,6.49-3.45h3.02c6.25,0,9.98,6.98,6.49,12.17l-52.54,78.36
				C611.72,158.76,611.73,162.22,613.5,164.86z"/>
			<path class="st6" d="M659.2,254.82h-3.51c-2.76,0-5.34-1.37-6.89-3.66l-44.84-66.48c-1.38-2.05-3.6-3.22-6.07-3.22
				c-2.47,0-4.68,1.17-6.07,3.22l-44.84,66.48c-1.55,2.29-4.12,3.66-6.89,3.66h-3.25c-3.13,0-5.87-1.65-7.34-4.41
				c-1.47-2.77-1.3-5.97,0.45-8.56l53.55-79.43c1.67-2.49,1.68-5.69,0.01-8.17l-51.16-76.2c-1.74-2.59-1.9-5.79-0.44-8.54
				c1.47-2.76,4.21-4.41,7.34-4.41h3.28c2.77,0,5.35,1.37,6.9,3.68l44.04,65.38c1.36,2.02,3.63,3.23,6.07,3.23c0,0,0,0,0.01,0
				c2.44,0,4.7-1.21,6.06-3.23l44.04-65.38c1.55-2.3,4.13-3.68,6.9-3.68h3.02c3.13,0,5.87,1.65,7.34,4.41
				c1.47,2.76,1.31,5.95-0.44,8.54l-52.54,78.36c-1.68,2.47-1.69,5.68-0.01,8.17l52.17,77.27c1.75,2.59,1.92,5.79,0.46,8.56
				C665.08,253.16,662.33,254.82,659.2,254.82z M597.88,180.45c2.77,0,5.35,1.37,6.9,3.66l44.84,66.48
				c1.37,2.02,3.63,3.22,6.06,3.22h3.51c2.76,0,5.17-1.45,6.46-3.89c1.29-2.43,1.14-5.25-0.4-7.53l-52.17-77.27
				c-1.91-2.83-1.9-6.48,0.01-9.29l52.54-78.35c1.53-2.28,1.68-5.09,0.38-7.52c-1.29-2.43-3.71-3.88-6.46-3.88h-3.02
				c-2.44,0-4.71,1.21-6.07,3.23l-44.04,65.38c-1.54,2.3-4.12,3.67-6.89,3.67c0,0,0,0-0.01,0c-2.77,0-5.35-1.37-6.9-3.67
				l-44.04-65.38c-1.36-2.03-3.64-3.23-6.07-3.23h-3.28c-2.75,0-5.16,1.45-6.46,3.88c-1.29,2.43-1.15,5.23,0.38,7.52l51.16,76.2
				c1.89,2.82,1.89,6.46-0.01,9.29l-53.55,79.43c-1.54,2.29-1.69,5.1-0.39,7.54c1.29,2.43,3.71,3.88,6.46,3.88h3.25
				c2.44,0,4.7-1.2,6.06-3.22l44.84-66.48C592.53,181.82,595.11,180.45,597.88,180.45z"/>
		</g>
		<g>
			<path class="st6" d="M689.14,240.43c-10.16-9.25-15.23-23.41-15.23-42.46v-76.03c0-19.05,5.08-33.21,15.23-42.46
				c10.15-9.25,25.75-13.89,46.78-13.89h57.15c4.32,0,7.82,3.5,7.82,7.82l0,0c0,4.32-3.5,7.82-7.82,7.82h-57.15
				c-14.56,0-25.3,3.33-32.22,9.98c-6.92,6.65-10.38,16.9-10.38,30.73v22.38c0,4.32,3.5,7.82,7.82,7.82h78.19
				c4.32,0,7.82,3.5,7.82,7.82l0,0c0,4.32-3.5,7.82-7.82,7.82h-78.19c-4.32,0-7.82,3.5-7.82,7.82v22.38
				c0,13.84,3.45,24.09,10.38,30.73c6.92,6.65,17.66,9.98,32.22,9.98h58.78c4.32,0,7.82,3.5,7.82,7.82l0,0
				c0,4.32-3.5,7.82-7.82,7.82h-58.78C714.9,254.32,699.29,249.69,689.14,240.43z"/>
			<path class="st6" d="M794.7,254.82h-58.78c-21.07,0-36.92-4.72-47.11-14.02c-10.21-9.3-15.39-23.71-15.39-42.83v-76.03
				c0-19.11,5.18-33.52,15.39-42.83c10.2-9.3,26.06-14.02,47.11-14.02h57.15c4.59,0,8.32,3.73,8.32,8.32s-3.73,8.32-8.32,8.32
				h-57.15c-14.35,0-25.08,3.31-31.87,9.84c-6.78,6.52-10.22,16.73-10.22,30.37v22.38c0,4.04,3.28,7.32,7.32,7.32h78.19
				c4.59,0,8.32,3.73,8.32,8.32s-3.73,8.32-8.32,8.32h-78.19c-4.04,0-7.32,3.28-7.32,7.32v22.38c0,13.65,3.44,23.86,10.22,30.37
				c6.8,6.53,17.52,9.84,31.87,9.84h58.78c4.59,0,8.32,3.73,8.32,8.32S799.28,254.82,794.7,254.82z M735.92,66.1
				c-20.8,0-36.42,4.63-46.44,13.76c-10,9.11-15.07,23.27-15.07,42.09v76.03c0,18.83,5.07,32.99,15.06,42.09l0,0
				c10,9.13,25.63,13.76,46.44,13.76h58.78c4.04,0,7.32-3.28,7.32-7.32s-3.28-7.32-7.32-7.32h-58.78c-14.62,0-25.58-3.4-32.56-10.12
				c-6.99-6.7-10.53-17.16-10.53-31.09V175.6c0-4.59,3.73-8.32,8.32-8.32h78.19c4.04,0,7.32-3.28,7.32-7.32s-3.28-7.32-7.32-7.32
				h-78.19c-4.59,0-8.32-3.73-8.32-8.32v-22.38c0-13.92,3.54-24.38,10.53-31.09c6.99-6.71,17.94-10.12,32.56-10.12h57.15
				c4.04,0,7.32-3.28,7.32-7.32s-3.28-7.32-7.32-7.32H735.92z"/>
		</g>
		<g>
			<path class="st6" d="M828.02,240.42c-9.98-9.25-14.97-23.41-14.97-42.46V73.41c0-4.32,3.5-7.82,7.82-7.82h3.77
				c4.32,0,7.82,3.5,7.82,7.82v124.55c0,13.84,3.38,24.09,10.11,30.73c6.74,6.65,17.21,9.98,31.41,9.98h52.84
				c4.32,0,7.82,3.5,7.82,7.82l0,0c0,4.32-3.5,7.82-7.82,7.82h-52.84C853.31,254.3,837.99,249.68,828.02,240.42z"/>
			<path class="st6" d="M926.83,254.8h-52.84c-20.71,0-36.29-4.72-46.31-14.02c-10.04-9.31-15.13-23.71-15.13-42.82V73.41
				c0-4.59,3.73-8.32,8.32-8.32h3.77c4.59,0,8.32,3.73,8.32,8.32v124.55c0,13.64,3.35,23.86,9.97,30.37
				c6.61,6.53,17.06,9.83,31.06,9.83h52.84c4.59,0,8.32,3.73,8.32,8.32S931.42,254.8,926.83,254.8z M820.87,66.09
				c-4.04,0-7.32,3.28-7.32,7.32v124.55c0,18.82,4.98,32.98,14.81,42.09l0,0c9.83,9.13,25.18,13.75,45.63,13.75h52.84
				c4.04,0,7.32-3.28,7.32-7.32s-3.28-7.32-7.32-7.32h-52.84c-14.27,0-24.95-3.41-31.76-10.12c-6.81-6.71-10.26-17.17-10.26-31.09
				V73.41c0-4.04-3.28-7.32-7.32-7.32H820.87z"/>
		</g>
	</g>
</g>
</svg>
